<svg width="24" height="24" viewBox="0 0 24 24" fill="none" xmlns="http://www.w3.org/2000/svg">
<path d="M12.2275 0.587436C11.6567 0.590542 11.0866 0.635651 10.5224 0.72279C10.4869 0.728404 10.4536 0.74328 10.4257 0.765918C10.3978 0.788556 10.3763 0.818154 10.3635 0.851724C10.1787 1.33092 10.184 1.86374 10.0147 2.3508C9.84545 2.83783 9.53485 3.29185 8.67456 3.64816C7.815 4.0042 7.27445 3.90337 6.81062 3.67919C6.3468 3.455 5.97402 3.07514 5.50524 2.86653C5.4722 2.85169 5.43582 2.8459 5.39981 2.84975C5.36381 2.85361 5.32947 2.86697 5.30033 2.88846C4.38248 3.56989 3.57059 4.3831 2.88963 5.3013C2.86796 5.33034 2.85441 5.36463 2.85036 5.40064C2.84632 5.43665 2.85193 5.47308 2.86662 5.50621C3.07543 5.97466 3.45634 6.34733 3.68035 6.81107C3.90437 7.27482 4.00415 7.8152 3.64825 8.67446C3.29251 9.53333 2.84019 9.84456 2.35409 10.0141C1.868 10.1836 1.33545 10.1787 0.856637 10.3618C0.823037 10.3745 0.793375 10.3958 0.770644 10.4236C0.747913 10.4514 0.732916 10.4847 0.727166 10.5202C0.638526 11.0848 0.592404 11.6548 0.587531 12.2263C0.587522 12.2274 0.587522 12.2284 0.587531 12.2295C0.591051 12.8003 0.635757 13.3704 0.722885 13.9345C0.728498 13.97 0.743375 14.0034 0.766013 14.0313C0.788651 14.0592 0.818249 14.0806 0.851818 14.0934C1.33101 14.2783 1.86384 14.273 2.35089 14.4422C2.83792 14.6115 3.29191 14.9221 3.64825 15.7824C4.00429 16.642 3.90348 17.1825 3.67928 17.6463C3.45508 18.1102 3.07524 18.483 2.86662 18.9517C2.85178 18.9848 2.84599 19.0211 2.84985 19.0571C2.8537 19.0932 2.86706 19.1275 2.88856 19.1566C3.56998 20.0745 4.38319 20.8875 5.3014 21.5684C5.33054 21.5899 5.36487 21.6033 5.40088 21.6071C5.43689 21.611 5.47327 21.6052 5.5063 21.5903C5.97478 21.3815 6.34797 21.0017 6.81169 20.7777C7.27543 20.5537 7.8153 20.4538 8.67455 20.8098C9.53343 21.1655 9.84468 21.6178 10.0142 22.1039C10.1837 22.59 10.1782 23.1226 10.3614 23.6014C10.3743 23.6349 10.3957 23.6643 10.4236 23.6869C10.4515 23.7094 10.4849 23.7242 10.5203 23.7298C11.0849 23.8184 11.6549 23.8656 12.2264 23.8705C12.2275 23.8705 12.2285 23.8705 12.2296 23.8705C12.8004 23.8674 13.3705 23.8211 13.9346 23.7341C13.97 23.7286 14.0033 23.7138 14.0312 23.6914C14.0591 23.669 14.0806 23.6396 14.0935 23.6062C14.2784 23.127 14.2731 22.5931 14.4423 22.1061C14.6116 21.619 14.9222 21.1661 15.7825 20.8098C16.6421 20.4537 17.1831 20.5535 17.647 20.7777C18.1108 21.0019 18.4836 21.3828 18.9524 21.5914C18.9855 21.6061 19.0219 21.6117 19.0579 21.6077C19.0939 21.6036 19.1282 21.5901 19.1573 21.5684C20.0751 20.887 20.8876 20.0738 21.5685 19.1556C21.5901 19.1265 21.6035 19.0922 21.6075 19.0561C21.6114 19.0201 21.6057 18.9837 21.591 18.9506C21.3821 18.4822 21.0018 18.1106 20.7777 17.6468C20.5537 17.1831 20.4539 16.6417 20.8098 15.7824C21.1656 14.9235 21.6179 14.6123 22.104 14.4428C22.5901 14.2733 23.1226 14.2787 23.6015 14.0956C23.6349 14.0827 23.6644 14.0612 23.687 14.0333C23.7095 14.0054 23.7243 13.9721 23.7299 13.9367C23.8185 13.3721 23.8657 12.802 23.8706 12.2306C23.8706 12.2295 23.8706 12.2284 23.8706 12.2273C23.867 11.6566 23.8213 11.0864 23.7341 10.5223C23.7286 10.4869 23.7139 10.4536 23.6915 10.4258C23.669 10.3979 23.6396 10.3764 23.6063 10.3634C23.1271 10.1786 22.5932 10.1839 22.1061 10.0146C21.6191 9.84533 21.1662 9.53473 20.8098 8.67443C20.4538 7.81488 20.5535 7.27435 20.7777 6.8105C21.0019 6.34667 21.3828 5.9739 21.5915 5.50511C21.6062 5.47199 21.6118 5.43555 21.6077 5.39954C21.6037 5.36354 21.5901 5.32925 21.5685 5.30021C20.887 4.38236 20.0743 3.57047 19.1562 2.88951C19.1271 2.86784 19.0928 2.85428 19.0568 2.85024C19.0208 2.8462 18.9844 2.85181 18.9513 2.8665C18.4828 3.0753 18.1107 3.45622 17.6469 3.68023C17.1832 3.90425 16.6417 4.00408 15.7825 3.64813C14.9236 3.29239 14.6129 2.84007 14.4434 2.35397C14.2739 1.86788 14.2788 1.33532 14.0956 0.856515C14.0829 0.822845 14.0615 0.793136 14.0336 0.7704C14.0057 0.747663 13.9723 0.732706 13.9368 0.727044C13.3722 0.638423 12.8021 0.592276 12.2307 0.587409C12.2296 0.5874 12.2285 0.5874 12.2274 0.587409L12.2275 0.587436ZM12.2285 6.18935C15.5665 6.18935 18.2676 8.89048 18.2676 12.2284C18.2676 15.5664 15.5665 18.2686 12.2285 18.2686C8.89062 18.2686 6.18945 15.5664 6.18945 12.2284C6.18945 8.89046 8.89062 6.18935 12.2285 6.18935V6.18935Z" fill="#FF6161"/>
</svg>
