<?xml version="1.0" encoding="utf-8"?>
<!-- Generator: Adobe Illustrator 23.0.1, SVG Export Plug-In . SVG Version: 6.00 Build 0)  -->
<svg version="1.1" id="Layer_1" xmlns="http://www.w3.org/2000/svg" xmlns:xlink="http://www.w3.org/1999/xlink" x="0px" y="0px"
	 viewBox="0 0 800 800" style="enable-background:new 0 0 800 800;" xml:space="preserve">
<g>
	<polygon points="418.7,217.14 418.7,185.66 50.83,185.66 50.83,217.14 219.02,217.14 219.02,620.36 250.5,620.36 250.5,217.14 	"/>
	<path d="M619.62,406.23l19.35-19.36l-22.25-22.25l-20.15,20.16c-16.1-11.32-35.23-18.61-55.91-20.39v-31.28h-31.47V366
		c-19.04,3.64-36.43,11.99-50.89,23.8l-25.17-25.18l-22.25,22.25l25.97,25.99c-10.25,14.58-17.19,31.64-19.73,50.09h-37.75v31.47
		h37.75c2.54,18.45,9.48,35.51,19.73,50.09l-25.97,25.99l22.25,22.25l25.17-25.18c14.46,11.81,31.85,20.17,50.89,23.8v32.88h31.47
		v-31.28c20.68-1.78,39.81-9.07,55.91-20.39l20.15,20.16l22.25-22.25l-19.35-19.36c13-15.92,21.82-35.39,24.76-56.71h26.1v-31.47
		h-26.1C641.44,441.63,632.63,422.16,619.62,406.23z M447.5,478.68c0-45.9,37.34-83.25,83.25-83.25s83.25,37.34,83.25,83.25
		s-37.34,83.25-83.25,83.25S447.5,524.59,447.5,478.68z"/>
	<path d="M749.17,281.97V250.5h-18.16c-2.23-8.52-5.96-16.44-10.86-23.48l13.64-13.64l-22.25-22.25l-14.42,14.42
		c-6.92-4.13-14.57-7.17-22.7-8.87v-20.93h-31.47v21.19c-7.99,1.8-15.5,4.87-22.29,9.02l-14.83-14.82l-22.25,22.25l14.29,14.28
		c-4.68,6.88-8.24,14.58-10.4,22.83H568.2v31.47h17.94c1.57,9.07,4.78,17.59,9.33,25.22l-11.9,11.89l22.25,22.25l11.12-11.11
		c7.73,5.38,16.52,9.33,26,11.46v15.04h31.47v-14.78c9.63-2.01,18.59-5.9,26.46-11.26l10.66,10.66l22.25-22.25l-11.2-11.2
		c4.77-7.81,8.12-16.57,9.74-25.91H749.17z M659.24,312.03c-23.56,0-42.73-19.16-42.73-42.72s19.17-42.72,42.73-42.72
		c23.56,0,42.72,19.16,42.72,42.72S682.8,312.03,659.24,312.03z"/>
</g>
</svg>
