<?xml version="1.0" encoding="utf-8"?>
<!-- Generator: Adobe Illustrator 23.0.1, SVG Export Plug-In . SVG Version: 6.00 Build 0)  -->
<svg version="1.1" id="Layer_1" xmlns="http://www.w3.org/2000/svg" xmlns:xlink="http://www.w3.org/1999/xlink" x="0px" y="0px"
	 viewBox="0 0 800 800" style="enable-background:new 0 0 800 800;" xml:space="preserve">
<g>
	<path d="M491.38,410.29l31.95-31.96l-36.73-36.73l-33.27,33.28c-26.58-18.69-58.16-30.72-92.31-33.66v-51.64h-51.96v54.3
		c-31.43,6.01-60.15,19.8-84.02,39.29l-41.56-41.57l-36.73,36.73l42.88,42.91c-16.92,24.07-28.38,52.24-32.57,82.7H94.73v51.96
		h62.32c4.19,30.46,15.65,58.63,32.57,82.7l-42.88,42.91l36.73,36.73l41.56-41.57c23.87,19.5,52.58,33.3,84.02,39.29v54.28h51.96
		v-51.64c34.14-2.94,65.73-14.97,92.31-33.66l33.27,33.28l36.73-36.73l-31.95-31.96c21.46-26.28,36.02-58.43,40.88-93.63h43.09
		v-51.96h-43.09C527.41,468.73,512.86,436.59,491.38,410.29z M207.21,529.9c0-75.78,61.65-137.44,137.44-137.44
		c75.8,0,137.44,61.65,137.44,137.44c0,75.8-61.65,137.44-137.44,137.44S207.21,605.7,207.21,529.9z"/>
	<path d="M705.27,205.13v-51.96h-29.98c-3.68-14.07-9.84-27.14-17.93-38.77l22.52-22.52l-36.73-36.73l-23.81,23.81
		c-11.42-6.82-24.05-11.84-37.48-14.64V29.77H529.9v34.98c-13.19,2.97-25.59,8.04-36.8,14.89l-24.48-24.47l-36.73,36.73l23.59,23.58
		c-7.73,11.36-13.6,24.07-17.17,37.69h-31.81v51.96h29.62c2.59,14.97,7.89,29.04,15.4,41.64l-19.65,19.63l36.73,36.73l18.36-18.34
		c12.76,8.88,27.27,15.4,42.93,18.92v24.83h51.96v-24.4c15.9-3.32,30.69-9.74,43.69-18.59l17.6,17.6l36.73-36.73l-18.49-18.49
		c7.88-12.89,13.41-27.36,16.08-42.78h27.82V205.13z M556.79,254.76c-38.9,0-70.55-31.63-70.55-70.53s31.65-70.53,70.55-70.53
		c38.9,0,70.53,31.63,70.53,70.53S595.69,254.76,556.79,254.76z"/>
</g>
</svg>
