<?xml version="1.0" encoding="utf-8"?>
<!-- Generator: Adobe Illustrator 23.0.1, SVG Export Plug-In . SVG Version: 6.00 Build 0)  -->
<svg version="1.1" id="Layer_1" xmlns="http://www.w3.org/2000/svg" xmlns:xlink="http://www.w3.org/1999/xlink" x="0px" y="0px"
	 viewBox="0 0 800 800" style="enable-background:new 0 0 800 800;" xml:space="preserve">
<style type="text/css">
	.st0{fill:#231F20;}
</style>
<path class="st0" d="M763.43,171.81c-10.01-22.34-24.09-40.98-42.22-55.93c-18.14-14.94-39.61-26.26-64.41-33.95
	c-24.81-7.68-52.01-11.53-81.6-11.53c0,0-296.14-0.57-305.13-0.59c-40.17-0.1-82.94,0.53-116.54,22.54
	c-30.29,19.84-48.27,54.59-55.59,90.06c-7.32,35.47-5.22,72.11-3.08,108.26c0,0.02-58.24,0.1-63.53,0.11c-2.28,0-5.53-0.6-7.71,0.01
	c-2.78,0.78-1.92,2-1.92,5.13c0,5.34,0,10.67,0,16.01c0,10.67,0,21.35,0,32.02c0,3.63,0,7.26,0,10.89c24.17,0,48.35,0,72.52,0
	c0,100.8,0,201.6,0,302.4c-22.05,0-44.11,0-66.16,0c0,24.32,0,48.63,0,72.95c71.25,0,142.51,0,213.76,0c0-24.32,0-48.63,0-72.95
	c-22.9,0-45.81,0-68.71,0c0-100.8,0-201.6,0-302.4c33.93,0,67.86,0,101.79,0c0-21.35,0-42.69,0-64.04c-33.93,0-91.28,0-125.21,0
	c31.69-31.69,15.63-86.23,34.6-123.36c3.54-6.93,8.29-13.57,15.06-17.42c4.88-2.78,10.4-3.88,16.04-4.33h155.69v509.64H308.4v74.86
	h214.13v-74.86h-66.15V424.67h117.08c30.75,0,58.68-4.64,83.78-13.93c25.09-9.28,46.64-21.9,64.63-37.86
	c17.99-15.95,31.91-34.6,41.78-55.93c9.86-21.33,14.8-44.02,14.8-68.11C778.44,219.83,773.44,194.15,763.43,171.81z M679.86,294.1
	c-5.66,13.06-13.49,23.94-23.5,32.64c-10.01,8.7-21.91,15.31-35.69,19.8c-13.78,4.5-28.94,6.75-45.48,6.75H456.38v-207.6h107.94
	c43.23,0,74.71,9.07,94.44,27.2c19.73,18.14,29.6,43.45,29.6,75.95C688.35,265.96,685.52,281.05,679.86,294.1z"/>
</svg>
