<?xml version="1.0" encoding="utf-8"?>
<!-- Generator: Adobe Illustrator 23.0.1, SVG Export Plug-In . SVG Version: 6.00 Build 0)  -->
<svg version="1.1" id="Layer_1" xmlns="http://www.w3.org/2000/svg" xmlns:xlink="http://www.w3.org/1999/xlink" x="0px" y="0px"
	 viewBox="0 0 800 800" style="enable-background:new 0 0 800 800;" xml:space="preserve">
<style type="text/css">
	
	.logo-outline {
	fill: none;
	stroke: white;
	stroke-width: 6px;
	stroke-dasharray: 500;
	animation: stroke-anim 5s infinite;
	}

	path { 
	stroke-dasharray: 100;
	animation: fill-anim 5s infinite;
	}


	@keyframes stroke-anim {
  	
		0% {
			stroke-dashoffset: 10;
			fill: transparent;
			}
		25% {
			stroke-dashoffset: 200;
			fill: transparent;
		}
		50% {
			stroke-dashoffset: 300;
			fill: transparent;
		}
		75% {
			stroke-dashoffset: 200;
			fill: white;
		}
		100% {
			stroke-dashoffset: 1000;
			fill: transparent;
		}
	}


</style>
<path class="logo-outline" d="M749.74,180.4c-9.63-21.5-23.18-39.44-40.63-53.82c-17.46-14.38-38.11-25.27-61.99-32.67
	c-23.87-7.39-50.05-11.1-78.53-11.1c0,0-284.99-0.55-293.65-0.57c-38.66-0.1-79.81,0.51-112.15,21.69
	c-29.15,19.09-46.46,52.54-53.5,86.67c-7.04,34.13-5.02,69.4-2.97,104.19c0,0.02-56.04,0.1-61.14,0.11c-2.19,0-5.32-0.58-7.42,0.01
	c-2.67,0.75-1.85,1.93-1.85,4.94c0,5.14,0,10.27,0,15.41c0,10.27,0,20.54,0,30.81c0,3.49,0,6.98,0,10.48c23.26,0,46.53,0,69.79,0
	c0,97.01,0,194.01,0,291.02c-21.22,0-42.45,0-63.67,0c0,23.4,0,46.8,0,70.2c68.57,0,137.14,0,205.71,0c0-23.4,0-46.8,0-70.2
	c-22.04,0-44.08,0-66.12,0c0-97.01,0-194.01,0-291.02c32.65,0,65.31,0,97.96,0c0-20.54,0-41.09,0-61.63c-32.65,0-87.84,0-120.5,0
	c30.5-30.5,15.04-82.99,33.3-118.72c3.41-6.67,7.98-13.06,14.49-16.76c4.7-2.67,10.01-3.74,15.44-4.16h149.83v490.46h-60.31v72.04
	h206.07v-72.04h-63.66V423.74h112.67c29.59,0,56.47-4.46,80.63-13.4c24.15-8.93,44.88-21.08,62.2-36.44
	c17.31-15.35,30.71-33.3,40.21-53.82c9.49-20.52,14.24-42.37,14.24-65.55C764.19,226.61,759.38,201.9,749.74,180.4z M669.33,298.09
	c-5.44,12.57-12.98,23.04-22.62,31.41c-9.63,8.38-21.09,14.73-34.35,19.06c-13.26,4.33-27.85,6.49-43.77,6.49H454.25V155.27h103.87
	c41.6,0,71.9,8.73,90.89,26.18c18.99,17.45,28.48,41.82,28.48,73.09C677.49,271.01,674.77,285.53,669.33,298.09z"/>
</svg>
